<?xml version="1.0" encoding="UTF-8"?>
<!DOCTYPE svg PUBLIC "-//W3C//DTD SVG 1.1//EN" "http://www.w3.org/Graphics/SVG/1.1/DTD/svg11.dtd">
<!-- Creator: CorelDRAW 2020 (64-Bit) -->
<svg xmlns="http://www.w3.org/2000/svg" xml:space="preserve" width="2.8442mm" height="1.4884mm" version="1.1" style="shape-rendering:geometricPrecision; text-rendering:geometricPrecision; image-rendering:optimizeQuality; fill-rule:evenodd; clip-rule:evenodd"
viewBox="0 0 2.79 1.46"
 xmlns:xlink="http://www.w3.org/1999/xlink"
 xmlns:xodm="http://www.corel.com/coreldraw/odm/2003">
 <defs>
  <style type="text/css">
   <![CDATA[
    .fil0 {fill:black;fill-rule:nonzero}
   ]]>
  </style>
 </defs>
 <g id="Capa_x0020_1">
  <metadata id="CorelCorpID_0Corel-Layer"/>
  <g>
   <path class="fil0" d="M0.04 0.24c-0.05,-0.05 -0.05,-0.13 -0,-0.18 0.05,-0.05 0.13,-0.05 0.18,-0l-0.18 0.19zm1.37 0.96l0 0.26 0 0 -0.07 -0.02 -0.03 -0.02 -0.03 -0.02 -0.03 -0.02 -0.03 -0.03 -0.04 -0.03 -0.04 -0.04 -0.05 -0.04 -0.05 -0.04 -0.05 -0.05 -0.05 -0.05 -0.06 -0.05 -0.06 -0.05 -0.06 -0.05 -0.06 -0.05 -0.06 -0.06 -0.06 -0.06 -0.06 -0.05 -0.06 -0.05 -0.06 -0.05 -0.05 -0.05 -0.05 -0.05 -0.05 -0.05 -0.04 -0.04 -0.04 -0.04 -0.04 -0.04 -0.03 -0.03 -0.03 -0.03 -0.02 -0.02 -0.02 -0.02 -0.01 -0.01 -0 -0 0.18 -0.19 0 0 0.01 0.01 0.02 0.02 0.02 0.02 0.03 0.03 0.03 0.03 0.04 0.04 0.04 0.04 0.04 0.04 0.05 0.05 0.05 0.05 0.05 0.05 0.06 0.05 0.06 0.05 0.06 0.05 0.06 0.06 0.06 0.06 0.06 0.05 0.06 0.05 0.06 0.05 0.05 0.05 0.05 0.05 0.05 0.05 0.05 0.04 0.04 0.04 0.04 0.04 0.04 0.03 0.03 0.03 0.02 0.02 0.02 0.01 0 0 -0.05 -0.01 0 0zm1.16 -1.16l0.18 0.18 -0 0 -0.01 0.01 -0.02 0.02 -0.02 0.02 -0.03 0.03 -0.03 0.03 -0.04 0.04 -0.04 0.04 -0.04 0.04 -0.05 0.05 -0.05 0.05 -0.05 0.05 -0.05 0.05 -0.06 0.06 -0.06 0.06 -0.06 0.06 -0.06 0.06 -0.06 0.06 -0.06 0.06 -0.06 0.05 -0.05 0.05 -0.05 0.05 -0.05 0.05 -0.05 0.04 -0.04 0.04 -0.04 0.04 -0.04 0.03 -0.03 0.03 -0.03 0.02 -0.03 0.02 -0.03 0.02 -0.07 0.02 0 -0.26 -0.05 0.01 0 -0 0.02 -0.01 0.02 -0.02 0.03 -0.03 0.03 -0.03 0.04 -0.04 0.04 -0.04 0.05 -0.04 0.05 -0.05 0.05 -0.05 0.05 -0.05 0.06 -0.05 0.06 -0.05 0.06 -0.06 0.06 -0.06 0.06 -0.06 0.06 -0.06 0.06 -0.05 0.05 -0.05 0.05 -0.05 0.05 -0.05 0.05 -0.05 0.04 -0.04 0.04 -0.04 0.04 -0.04 0.03 -0.03 0.03 -0.03 0.02 -0.02 0.02 -0.02 0.01 -0.01 0 -0zm0 0c0.05,-0.05 0.13,-0.05 0.18,-0 0.05,0.05 0.05,0.13 0,0.18l-0.18 -0.18z"/>
  </g>
 </g>
</svg>
