<?xml version="1.0" encoding="UTF-8"?>
<!DOCTYPE svg PUBLIC "-//W3C//DTD SVG 1.1//EN" "http://www.w3.org/Graphics/SVG/1.1/DTD/svg11.dtd">
<!-- Creator: CorelDRAW 2020 (64-Bit) -->
<svg xmlns="http://www.w3.org/2000/svg" xml:space="preserve" width="3.4396mm" height="3.4396mm" version="1.1" style="shape-rendering:geometricPrecision; text-rendering:geometricPrecision; image-rendering:optimizeQuality; fill-rule:evenodd; clip-rule:evenodd"
viewBox="0 0 3.38 3.38"
 xmlns:xlink="http://www.w3.org/1999/xlink"
 xmlns:xodm="http://www.corel.com/coreldraw/odm/2003">
 <defs>
  <style type="text/css">
   <![CDATA[
    .fil0 {fill:black;fill-rule:nonzero}
   ]]>
  </style>
 </defs>
 <g id="Capa_x0020_1">
  <metadata id="CorelCorpID_0Corel-Layer"/>
  <path class="fil0" d="M1.69 3.38l-0.24 -0.24c-0.28,-0.28 -0.52,-0.52 -0.7,-0.72 -0.19,-0.2 -0.33,-0.38 -0.44,-0.55 -0.11,-0.16 -0.19,-0.31 -0.23,-0.44 -0.04,-0.13 -0.07,-0.27 -0.07,-0.41 0,-0.29 0.09,-0.53 0.27,-0.72 0.18,-0.19 0.4,-0.29 0.66,-0.29 0.15,0 0.29,0.03 0.42,0.1 0.13,0.07 0.25,0.16 0.34,0.29 0.1,-0.12 0.21,-0.22 0.34,-0.29 0.13,-0.07 0.27,-0.1 0.42,-0.1 0.26,0 0.49,0.1 0.66,0.29 0.18,0.19 0.27,0.43 0.27,0.72 0,0.14 -0.02,0.28 -0.07,0.41 -0.04,0.13 -0.12,0.28 -0.23,0.44 -0.11,0.16 -0.26,0.34 -0.44,0.55 -0.19,0.2 -0.42,0.44 -0.7,0.72l-0.24 0.24z"/>
 </g>
</svg>
