<svg width="14" height="13" viewBox="0 0 14 13" fill="none" xmlns="http://www.w3.org/2000/svg">
<path d="M7 13L5.985 12.079C4.80667 11.0045 3.8325 10.0777 3.0625 9.29836C2.2925 8.51907 1.68 7.81936 1.225 7.19924C0.77 6.57958 0.4522 6.00999 0.2716 5.49046C0.091 4.97094 0.000466667 4.4396 0 3.89646C0 2.78656 0.3675 1.85967 1.1025 1.1158C1.8375 0.371935 2.75333 0 3.85 0C4.45667 0 5.03417 0.129882 5.5825 0.389646C6.13083 0.64941 6.60333 1.01544 7 1.48774C7.39667 1.01544 7.86917 0.64941 8.4175 0.389646C8.96583 0.129882 9.54333 0 10.15 0C11.2467 0 12.1625 0.371935 12.8975 1.1158C13.6325 1.85967 14 2.78656 14 3.89646C14 4.4396 13.9095 4.97094 13.7284 5.49046C13.5473 6.00999 13.2295 6.57958 12.775 7.19924C12.32 7.81936 11.7075 8.51907 10.9375 9.29836C10.1675 10.0777 9.19333 11.0045 8.015 12.079L7 13ZM7 11.0872C8.12 10.0718 9.04167 9.20084 9.765 8.47444C10.4883 7.74805 11.06 7.11658 11.48 6.58005C11.9 6.04258 12.1917 5.56414 12.355 5.14474C12.5183 4.72534 12.6 4.30925 12.6 3.89646C12.6 3.18801 12.3667 2.59764 11.9 2.12534C11.4333 1.65304 10.85 1.41689 10.15 1.41689C9.60167 1.41689 9.09417 1.57322 8.6275 1.88589C8.16083 2.19855 7.84 2.59717 7.665 3.08174H6.335C6.16 2.59764 5.83917 2.19902 5.3725 1.88589C4.90583 1.57275 4.39833 1.41642 3.85 1.41689C3.15 1.41689 2.56667 1.65304 2.1 2.12534C1.63333 2.59764 1.4 3.18801 1.4 3.89646C1.4 4.30972 1.48167 4.72605 1.645 5.14545C1.80833 5.56485 2.1 6.04305 2.52 6.58005C2.94 7.11706 3.51167 7.74875 4.235 8.47515C4.95833 9.20154 5.88 10.0722 7 11.0872Z" fill="black"/>
</svg>
